<?xml version="1.0" encoding="iso-8859-1"?>
<!-- Uploaded to: SVG Repo, www.svgrepo.com, Generator: SVG Repo Mixer Tools -->
<svg height="800px" width="800px" version="1.1" id="Layer_1" xmlns="http://www.w3.org/2000/svg" xmlns:xlink="http://www.w3.org/1999/xlink" 
	 viewBox="0 0 512 512" xml:space="preserve">
<path d="M146.931,506.427c-4.427,0-8.013-3.587-8.013-8.013V476.08c0-28.276,16.654-50.081,42.428-55.552
	c4.327-0.919,8.583,1.845,9.504,6.174c0.918,4.329-1.846,8.584-6.174,9.504c-18.338,3.892-29.729,19.171-29.729,39.874v22.334
	C154.945,502.839,151.358,506.427,146.931,506.427z"/>
<path d="M365.524,506.427c4.427,0,8.013-3.587,8.013-8.013V476.08c0-28.276-16.654-50.081-42.428-55.552
	c-4.327-0.919-8.583,1.845-9.504,6.174c-0.918,4.329,1.846,8.584,6.174,9.504c18.338,3.892,29.729,19.171,29.729,39.874v22.334
	C357.511,502.839,361.098,506.427,365.524,506.427z"/>
<g>
	<path style="fill:#FFEB99;" d="M167.56,371.524c-15.367,31.054-40.981,40.248-58.759,37.922
		c-22.064-2.887-34.898-26.537-25.823-46.855l74.952-188.234l29.755-6.764l58.383,65.663L167.56,371.524z"/>
	<path style="fill:#FFEB99;" d="M427.793,362.591c9.075,20.317-3.759,43.968-25.823,46.855c-17.778,2.326-43.39-6.868-58.759-37.922
		l-55.685-147.599l36.716-56.576c0,0,27.779,5.15,27.9,7.082C352.263,176.363,427.793,362.591,427.793,362.591z"/>
</g>
<path style="fill:#FFCD00;" d="M317.488,224.248c34.298,34.298,34.298,204.383,0,238.681C300.34,480.077,254.78,512,254.78,512
	s-44.348-31.922-61.497-49.071c-34.298-34.298-34.298-204.383,0-238.681H317.488z"/>
<path d="M338.655,281.652l-166.534-0.022c-1.632,10.195-2.827,21.114-3.581,32.378l173.695,0.022
	C341.48,302.767,340.285,291.848,338.655,281.652z"/>
<path d="M173.796,414.985c2.46,12.494,5.648,23.562,9.564,32.379h144.052c3.916-8.816,7.105-19.884,9.564-32.379H173.796z"/>
<path d="M343.157,350.227H167.614c0.159,10.974,0.715,21.878,1.668,32.379h172.207C342.442,372.105,342.998,361.201,343.157,350.227
	z"/>
<path style="fill:#663A00;" d="M306.716,233.255H204.055c-24.797,0-45.087-20.29-45.087-45.087v-8.604
	c0-24.797,20.29-45.087,45.087-45.087h102.661c24.797,0,45.087,20.29,45.087,45.087v8.604
	C351.803,212.966,331.513,233.255,306.716,233.255z"/>
<g>
	<path style="fill:#FCEFB9;" d="M351.803,167.349l128.358,144.026c14.805,16.612,9.74,43.04-10.413,52.476
		c-16.238,7.603-37.687,7.779-61.742-17.158C355.125,291.87,351.803,167.349,351.803,167.349z"/>
	<path style="fill:#FCEFB9;" d="M158.265,167.349L29.908,311.375c-14.805,16.612-9.74,43.04,10.413,52.476
		c16.238,7.603,37.687,7.779,61.742-17.158C154.945,291.87,158.265,167.349,158.265,167.349z"/>
</g>
<g>
	<path style="fill:#663A00;" d="M344.982,166.424c-3.704,0-7.03-2.583-7.831-6.351c-0.918-4.329,1.846-8.584,6.174-9.504
		c18.339-3.892,29.73-19.171,29.73-39.874V49.34c0-4.427,3.587-8.013,8.013-8.013c4.427,0,8.013,3.587,8.013,8.013v61.355
		c0,28.276-16.655,50.081-42.429,55.552C346.093,166.366,345.534,166.424,344.982,166.424z"/>
	<path style="fill:#663A00;" d="M163.852,167.593c-0.552,0-1.111-0.058-1.672-0.176c-25.774-5.471-42.429-27.276-42.429-55.552
		V50.509c0-4.427,3.587-8.013,8.013-8.013c4.427,0,8.013,3.587,8.013,8.013v61.355c0,20.703,11.392,35.983,29.73,39.874
		c4.329,0.919,7.093,5.174,6.174,9.504C170.882,165.009,167.555,167.593,163.852,167.593z"/>
</g>
<path d="M282.536,59.29h-11.923c-4.427,0-8.013-3.587-8.013-8.013s3.587-8.013,8.013-8.013h11.923
	c9.377,0,17.006-7.63,17.006-17.006V8.013c0-4.427,3.587-8.013,8.013-8.013s8.013,3.587,8.013,8.013v18.244
	C315.569,44.472,300.751,59.29,282.536,59.29z"/>
<path d="M237.311,59.29h-11.923c-18.215,0-33.033-14.818-33.033-33.033V8.013c0-4.427,3.587-8.013,8.013-8.013
	s8.013,3.587,8.013,8.013v18.244c0,9.377,7.63,17.006,17.006,17.006h11.923c4.427,0,8.013,3.587,8.013,8.013
	S241.737,59.29,237.311,59.29z"/>
<path d="M296.987,131.799h17.656c18.138,0,32.841-14.703,32.841-32.841s-14.703-38.692-32.841-38.692h-19.083h-80.35h-19.083
	c-18.138,0-32.841,20.555-32.841,38.692s14.703,32.841,32.841,32.841h17.656H296.987z"/>
<path style="fill:#FFCD00;" d="M314.859,99.577c0,32.787-26.578,39.577-59.366,39.577s-59.366-6.79-59.366-39.577
	s59.366-65.217,59.366-65.217S314.859,66.79,314.859,99.577z"/>
<g style="opacity:0.1;">
	<path d="M482.092,311.375L353.735,167.349c0,0,0.068,2.557,0.34,7.083v-0.001c-0.012-0.182-0.268-0.392-0.723-0.624
		c-0.366-2.843-0.998-5.605-1.873-8.261c24.118-6.443,39.537-27.648,39.537-54.85V49.34c0-4.427-3.587-8.013-8.013-8.013
		s-8.013,3.587-8.013,8.013v61.355c0,20.703-11.392,35.983-29.73,39.874c-0.596,0.126-1.158,0.322-1.689,0.565
		c-8.285-10.148-20.878-16.658-34.922-16.658h-15.631c2.157-0.772,4.197-1.664,6.111-2.677h17.448
		c18.138,0,32.841-14.704,32.841-32.841s-14.703-38.692-32.841-38.692h-19.083h-3.937c-0.647-0.594-1.299-1.181-1.954-1.76
		c14.796-3.27,25.9-16.484,25.9-32.249V8.013c0-4.427-3.587-8.013-8.013-8.013c-4.427,0-8.013,3.587-8.013,8.013v18.244
		c0,9.377-7.63,17.006-17.006,17.006h-4.339c9.274,80.33,14.309,252.591-75.092,428.663C225.207,489.321,256.713,512,256.713,512
		s45.558-31.922,62.707-49.071c4.944-4.944,9.17-12.722,12.69-22.496c0.04-0.11,0.078-0.222,0.118-0.333
		c0.347-0.973,0.688-1.963,1.021-2.975c16.254,5.014,26.195,19.616,26.195,38.954v22.334c0,4.427,3.587,8.013,8.013,8.013
		c4.427,0,8.013-3.587,8.013-8.013v-22.334c0-26.615-14.757-47.491-37.983-54.415c0.488-2.14,0.955-4.325,1.396-6.561
		c0.009-0.04,0.017-0.078,0.025-0.117h-0.002c1.974-10.025,3.479-20.961,4.515-32.379h0.001c0.001-0.016,0.002-0.033,0.004-0.049
		c0.232-2.556,0.438-5.136,0.623-7.735c0.009-0.114,0.016-0.229,0.024-0.343c0.115-1.643,0.221-3.292,0.318-4.948l0.752,1.995
		c15.368,31.053,40.981,40.248,58.759,37.922c22.064-2.887,34.898-26.538,25.823-46.855c0,0-0.061-0.151-0.173-0.426
		c16.091,8.779,30.456,7.152,42.127,1.687C491.832,354.416,496.898,327.989,482.092,311.375z"/>
</g>
</svg>